<!DOCTYPE svg PUBLIC "-//W3C//DTD SVG 1.1//EN" "http://www.w3.org/Graphics/SVG/1.1/DTD/svg11.dtd">
<!-- Uploaded to: SVG Repo, www.svgrepo.com, Transformed by: SVG Repo Mixer Tools -->
<svg fill="#552538" height="180px" width="180px" version="1.1" id="Layer_1" xmlns="http://www.w3.org/2000/svg" xmlns:xlink="http://www.w3.org/1999/xlink" viewBox="0 0 508 508" xml:space="preserve">
<g id="SVGRepo_bgCarrier" stroke-width="0"/>
<g id="SVGRepo_tracerCarrier" stroke-linecap="round" stroke-linejoin="round"/>
<g id="SVGRepo_iconCarrier"> <g> <g> <path d="M433.5,254c44.1-22,74.5-67.4,74.5-119.9C508,60.1,447.9,0,373.9,0C321.4,0,276,30.4,254,74.5C232,30.4,186.6,0,134.1,0 C60.1,0,0,60.1,0,134.1c0,52.5,30.4,98,74.5,119.9C30.4,276,0,321.4,0,373.9C0,447.9,60.1,508,134.1,508 c52.5,0,98-30.4,119.9-74.5c22,44.1,67.4,74.5,119.9,74.5c73.9,0,134.1-60.1,134.1-134.1C508,321.4,477.6,276,433.5,254z M373.9,28.2c58.4,0,105.8,47.5,105.8,105.8s-47.5,105.8-105.8,105.8S268.1,192.3,268.1,134S315.6,28.2,373.9,28.2z M28.2,134.1 C28.2,75.7,75.7,28.3,134,28.3s105.8,47.5,105.8,105.8c0,58.3-47.5,105.8-105.8,105.8S28.2,192.4,28.2,134.1z M134.1,479.8 c-58.4,0-105.8-47.5-105.8-105.8s47.5-105.8,105.8-105.8c58.3,0,105.8,47.5,105.8,105.8S192.4,479.8,134.1,479.8z M193.6,254 c26.1-13,47.4-34.3,60.4-60.4c13,26.1,34.3,47.4,60.4,60.4c-26.1,13-47.4,34.3-60.4,60.4C241,288.3,219.7,267,193.6,254z M373.9,479.8c-58.4,0-105.8-47.5-105.8-105.8s47.5-105.8,105.8-105.8S479.7,315.7,479.7,374S432.3,479.8,373.9,479.8z"/> </g> </g> <g> <g> <path d="M183.6,120H84.5c-7.8,0-14.1,6.3-14.1,14.1c0,7.8,6.3,14.1,14.1,14.1h99.1c7.8,0,14.1-6.4,14.1-14.1 C197.7,126.3,191.4,120,183.6,120z"/> </g> </g> <g> <g> <path d="M136.4,77.7h-4.7c-7.8,0-14.1,6.3-14.1,14.1s6.3,14.1,14.1,14.1h4.7c7.8,0,14.1-6.3,14.1-14.1S144.2,77.7,136.4,77.7z"/> </g> </g> <g> <g> <path d="M136.4,162.2h-4.7c-7.8,0-14.1,6.3-14.1,14.1s6.3,14.1,14.1,14.1h4.7c7.8,0,14.1-6.3,14.1-14.1S144.2,162.2,136.4,162.2z"/> </g> </g> <g> <g> <path d="M423.5,120h-99.1c-7.8,0-14.1,6.3-14.1,14.1s6.3,14.1,14.1,14.1h99.1c7.8,0,14.1-6.3,14.1-14.1S431.3,120,423.5,120z"/> </g> </g> <g> <g> <path d="M179.2,399L154,373.9l25.1-25.1c5.5-5.5,5.5-14.4,0-20c-5.5-5.5-14.4-5.5-20,0l-25,25.2L109,328.9c-5.5-5.5-14.4-5.5-20,0 c-5.5,5.5-5.5,14.4,0,20l25.1,25.1L89,399c-5.5,5.5-5.5,14.4,0,20c5.2,5.2,14.5,5.4,20,0l25.1-25.1l25.1,25.1 c5.7,5.7,14.7,5.3,20,0C184.7,413.5,184.7,404.6,179.2,399z"/> </g> </g> <g> <g> <path d="M423.5,359.8h-35.4v-35.4c0-7.8-6.3-14.1-14.1-14.1c-7.8,0-14.1,6.3-14.1,14.1v35.4h-35.5c-7.8,0-14.1,6.3-14.1,14.1 s6.3,14.1,14.1,14.1h35.5v35.5c0,7.8,6.3,14.1,14.1,14.1s14.1-6.3,14.1-14.1V388h35.4c7.8,0,14.1-6.3,14.1-14.1 C437.6,366.1,431.3,359.8,423.5,359.8z"/> </g> </g> </g>
</svg>