<!DOCTYPE svg PUBLIC "-//W3C//DTD SVG 1.1//EN" "http://www.w3.org/Graphics/SVG/1.1/DTD/svg11.dtd">
<!-- Uploaded to: SVG Repo, www.svgrepo.com, Transformed by: SVG Repo Mixer Tools -->
<svg fill="#552538" width="170px" height="170px" viewBox="0 0 19.00 19.00" xmlns="http://www.w3.org/2000/svg" class="cf-icon-svg" transform="matrix(1, 0, 0, 1, 0, 0)rotate(0)">
<g id="SVGRepo_bgCarrier" stroke-width="0"/>
<g id="SVGRepo_tracerCarrier" stroke-linecap="round" stroke-linejoin="round" stroke="#CCCCCC" stroke-width="0.45599999999999996"/>
<g id="SVGRepo_iconCarrier">
<path d="M13.55 15.256H1.45a.554.554 0 0 1-.553-.554V3.168a.554.554 0 1 1 1.108 0v10.98h11.544a.554.554 0 0 1 0 1.108zM3.121 13.02V6.888a.476.476 0 0 1 .475-.475h.786a.476.476 0 0 1 .475.475v6.132zm2.785 0V3.507a.476.476 0 0 1 .475-.475h.786a.476.476 0 0 1 .475.475v9.513zm2.785 0V6.888a.476.476 0 0 1 .475-.475h.786a.476.476 0 0 1 .475.475v6.132zm2.786 0v-2.753a.476.476 0 0 1 .475-.475h.785a.476.476 0 0 1 .475.475v2.753z"/>
</g>
</svg>